<?xml version="1.0" encoding="UTF-8" standalone="no"?>
<svg width="1546px" height="1546px" viewBox="0 0 1546 1546" version="1.1" xmlns="http://www.w3.org/2000/svg" xmlns:xlink="http://www.w3.org/1999/xlink">
    <!-- Generator: Sketch 3.7 (28169) - http://www.bohemiancoding.com/sketch -->
    <title>Bertie flat</title>
    <desc>Created with Sketch.</desc>
    <defs></defs>
    <g id="Page-1" stroke="none" stroke-width="1" fill="none" fill-rule="evenodd">
        <g id="Bertie-flat" transform="translate(773.000000, 732.500000) scale(-1, 1) translate(-773.000000, -732.500000) translate(2.000000, -91.000000)">
            <ellipse id="Oval-15-Copy" stroke="#625555" stroke-width="4" fill="#DAEFFF" cx="771" cy="864" rx="771" ry="771"></ellipse>
            <path d="M1090.2661,1154.89813 C1094.34201,1149.65135 1098.96701,1139.58181 1051.95442,1144.13532 C1004.94183,1148.68883 1003.34718,1161.91133 1003.34718,1161.91133 L1067.11558,1200.73015 C1067.11558,1200.73015 1086.19019,1160.14492 1090.2661,1154.89813 Z" id="Path-22" stroke="#625555" stroke-width="4" fill="#A7BBD2"></path>
            <path d="M468.902276,1156.05701 C454.377118,1145.63332 486.127715,1142.01158 505.860403,1142.01158 C525.593091,1142.01158 528.597599,1143.42899 528.597599,1143.42899 L483.660973,1200.04802 C483.660973,1200.04802 483.427434,1166.48071 468.902276,1156.05701 Z" id="Path-21" stroke="#625555" stroke-width="4" fill="#A7BBD2"></path>
            <path d="M462.184002,1064.41945 C462.184002,1064.41945 504.244699,1090.02379 456.460695,1192.73565 C451.582671,1203.22098 425.785554,1237.4046 425.785554,1237.4046 L328.46116,1284.94862 L724.554481,1442.92751 L1213.84021,1266.41906 C1213.84021,1266.41906 1052.4201,1185.02933 1042.40564,1142.50114 C1032.39117,1099.97294 1068.04406,1078.02021 1068.04406,1078.02021 L462.184002,1064.41945 Z" id="Neck" stroke="#625555" stroke-width="6" fill="#625555" transform="translate(771.150683, 1253.673481) scale(-1, 1) rotate(-357.000000) translate(-771.150683, -1253.673481) "></path>
            <g id="Shirt" transform="translate(135.000000, 1135.000000)">
                <path d="M638.496667,500.104895 C1053.70089,507.58924 1257.83146,192.649527 1257.83146,192.649527 L983.735029,79.3601756 C983.735029,79.3601756 970.298993,37.9356818 962.490888,21.0329966 C902.512372,95.838118 712.783429,106.353667 644.357282,106.353667 C575.931134,106.353667 447.266023,106.156485 333.127301,11.8948121 C321.756399,26.7017487 289.424543,65.2208018 289.424543,65.2208018 L4.80953278,157.483359 C4.80953278,157.483359 187.145845,491.968983 638.496667,500.104895 Z" stroke="#625555" stroke-width="4" fill="#FFFFFF" transform="translate(631.320496, 256.065510) rotate(-1.000000) translate(-631.320496, -256.065510) "></path>
                <path d="M894.697314,458.088425 C876.030232,409.366776 817.585439,327 653.5,327 C489.414561,327 406.516774,410.122475 389.934468,462.446915" id="Oval-10" stroke="#ADA7D2" stroke-width="60"></path>
            </g>
            <g id="Face" transform="translate(798.406196, 643.574913) rotate(-11.000000) translate(-798.406196, -643.574913) translate(264.406196, 92.074913)">
                <path d="M834.425695,192.629491 C834.425695,192.629491 795.096774,156.313252 645.205563,118.307664 C495.314353,80.3020758 352.341515,94.0490633 352.341515,94.0490633 C352.341515,94.0490633 286.061619,25.9643611 208.024006,10.3096128 C129.986394,-5.34513557 129.914952,161.583237 105.604877,221.802293 C81.1237402,282.44509 1.10323998,395.441386 10.9970911,650.177937 C17.0504577,806.0337 95.8689495,975.817884 283.885564,1047.56832 C374.022802,1081.96627 450.607577,1095.68855 532.477392,1092.58114 C746.100165,1084.47297 912.554967,999.311177 1012.76487,646.469991 C1036.06495,564.429894 1039.31608,380.143666 1039.31608,380.143666 C1039.31608,380.143666 1082.12976,213.83666 1039.31608,175.796727 C981.076574,124.050969 834.425695,192.629491 834.425695,192.629491 Z" id="Path-1" fill="#6B5B59" transform="translate(534.249479, 551.143679) rotate(-359.000000) translate(-534.249479, -551.143679) "></path>
                <path d="M965.377402,264.767834 C929.942691,308.54089 904.41775,364.899419 904.41775,364.899419 C904.41775,364.899419 847.945598,241.779737 876.433849,204.181958 C904.9221,166.584178 1035.91313,192.930708 1035.91313,192.930708 C1035.91313,192.930708 1000.81211,220.994778 965.377402,264.767834 Z" id="Path-19" fill="#625555" transform="translate(952.158735, 274.428509) scale(-1, 1) rotate(-350.000000) translate(-952.158735, -274.428509) "></path>
                <path d="M164.335121,97.2481266 C164.335121,97.2481266 241.369265,37.6783706 276.05245,57.9177399 C296.932837,70.1024872 297.030187,185.821187 297.030187,185.821187 C297.030187,185.821187 270.322255,155.316093 236.966411,135.529837 C203.610566,115.743581 164.335121,97.2481266 164.335121,97.2481266 Z" id="Path-20" fill="#625555" transform="translate(230.682654, 119.771920) scale(-1, 1) rotate(-7.000000) translate(-230.682654, -119.771920) "></path>
                <g id="Left-eye" transform="translate(185.000000, 254.000000)">
                    <path d="M7.87022661,61.3091433 C10.1301068,35.3337349 37.238317,3.1946497 73.8969943,9.78666005 C116.064232,17.3692267 132.627074,42.9293485 130.714665,64.9108717 C128.802256,86.8923949 111.245649,101.978193 64.3328667,111.94857 C17.4200847,121.918946 5.61034645,87.2845517 7.87022661,61.3091433 Z" id="Path-5" stroke="#625555" stroke-width="3" fill="#FFFFFF" transform="translate(69.235082, 61.309144) rotate(-8.000000) translate(-69.235082, -61.309144) "></path>
                    <path d="M68.7032932,102.946611 C92.8399555,102.946611 112.406586,84.3610467 112.406586,61.4345909 C112.406586,38.5081351 92.8399555,19.9225705 68.7032932,19.9225705 C44.5666308,19.9225705 25,38.5081351 25,61.4345909 C25,84.3610467 44.5666308,102.946611 68.7032932,102.946611 Z" id="Oval-3" stroke="#FFFFFF" fill="#404040"></path>
                    <path d="M68.7071336,56.0806992 C81.7792804,56.2030387 94.4142687,63.1481837 94.4142687,56.0807002 C94.4142687,42.1862488 82.9047926,30.9225705 68.7071343,30.9225705 C54.5094761,30.9225705 43,42.1862488 43,56.0807002 C43,62.9076681 56.079849,55.962523 68.7071336,56.0806992 Z" id="Oval-1" fill="#FFFFFF"></path>
                </g>
                <g id="Right-eye" transform="translate(601.000000, 354.000000)">
                    <path d="M10.5587599,38.8649229 C10.5587599,38.8649229 29.0087661,-5.04080236 81.6875656,10.608927 C134.366365,26.2586563 131.073256,75.4366303 120.150109,94.2667242 C109.226961,113.096818 69.1776808,131.516224 31.1627749,97.9398635 C-6.85213107,64.3635031 10.5587599,38.8649229 10.5587599,38.8649229 Z" id="Path-4" stroke="#625555" stroke-width="3" fill="#FFFFFF" transform="translate(66.662787, 61.906714) rotate(-353.000000) translate(-66.662787, -61.906714) "></path>
                    <path d="M66.1107761,103.90465 C90.2474384,103.90465 109.814069,85.319085 109.814069,62.3926292 C109.814069,39.4661734 90.2474384,20.8806088 66.1107761,20.8806088 C41.9741138,20.8806088 22.4074829,39.4661734 22.4074829,62.3926292 C22.4074829,85.319085 41.9741138,103.90465 66.1107761,103.90465 Z" id="Oval-3" stroke="#FFFFFF" fill="#404040" transform="translate(66.110776, 62.392629) rotate(-353.000000) translate(-66.110776, -62.392629) "></path>
                    <path d="M93.80209,70.4958871 C99.6495692,54.8424419 91.8645222,37.2121398 76.4137008,31.1175052 C60.9628793,25.0228707 43.6971952,32.7718177 37.849716,48.425263 C35.0107035,56.0251748 53.1609038,49.9197303 66.6499577,55.4932287 C80.9441427,61.3993966 90.7936233,78.5494205 93.80209,70.4958871 Z" id="Oval-2" fill="#FFFFFF" transform="translate(66.649959, 50.822721) rotate(-358.000000) translate(-66.649959, -50.822721) "></path>
                </g>
                <g id="Nose" transform="translate(137.000000, 332.000000)">
                    <path d="M67.1765581,380.251531 C62.6857086,435.71314 76.2012739,477.321134 84.7204236,504.127042 C88.7534196,516.817055 111.568052,572.698644 173.34698,585.376348 C242.06755,599.478552 333.083037,566.235646 381.414309,520.521489 C473.194786,433.710881 473.725812,392.097323 497.605265,298.877942 C521.484718,205.658561 485.503017,117.484859 416.561641,51.864681 C371.141332,8.63246151 281.331721,-1.69285194 258.040631,1.09311889 C234.749542,3.87908971 189.280511,16.7062889 135.622386,45.8077465 C81.9642617,74.9092041 50.6211505,91.853973 0.493885356,259.987629 C-3.8203342,282.935279 71.6674076,324.789922 67.1765581,380.251531 Z" id="Path-2" fill="#FFF8E9"></path>
                    <path d="M124.0774,261.50494 C146.363994,261.504946 214.719076,255.651484 264.624264,185.183694 C280.96061,162.116228 261.908845,126.847376 251.951821,110.975388 C231.49157,78.3607359 209.472126,69.6772647 189.580581,63.3892029 C169.689036,57.1011411 120.954636,35.4381094 82.8894463,63.3892033 C44.8242568,91.3402972 33.5143502,153.269044 33.5143505,177.891934 C33.5143505,189.450351 36.0831472,207.166061 43.138423,217.197329 C51.1129986,228.535667 101.790806,261.504934 124.0774,261.50494 Z" id="Path-3" fill="#4A4A4A" transform="translate(152.257175, 155.476266) rotate(-14.000000) translate(-152.257175, -155.476266) "></path>
                    <path d="M76.0296973,102.674992 C76.0296973,102.674992 116.854987,79.694326 116.854987,102.674992 C116.854988,125.655658 99.7640519,126.880645 102.411227,152.295495 C105.058401,177.710345 61.3153741,176.091077 52.9198025,156.321186 C44.5242308,136.551295 76.0296973,102.674992 76.0296973,102.674992 Z" id="Path-14" fill="#404040" transform="translate(84.176082, 131.863009) rotate(-10.000000) translate(-84.176082, -131.863009) "></path>
                    <path d="M166.179072,104.048886 C172.468327,108.077635 193.730386,152.700808 186.101203,166.011005 C178.472019,179.321201 169.787277,191.362061 150.294171,191.362061 C130.801065,191.362062 126.389815,169.462456 126.389815,160.880179 C126.389815,152.297902 141.895194,145.370824 141.895194,131.144282 C141.895194,116.91774 125.208086,111.44027 141.895194,102.540659 C158.582303,93.6410476 159.889817,100.020138 166.179072,104.048886 Z" id="Path-15" fill="#404040" transform="translate(157.061060, 144.703073) rotate(-10.000000) translate(-157.061060, -144.703073) "></path>
                </g>
                <g id="Mouth" transform="translate(141.000000, 588.000000)">
                    <path d="M2.01534593,2.82777451 C28.4212732,-15.7806711 266.512724,103.412487 344.375395,83.0584552 C422.238066,62.7044238 394.937437,122.082187 372.749144,140.600673 C231.064596,258.851467 70.7132484,192.249067 70.7132472,122.082188 C70.713246,51.9153078 -11.4299514,21.673306 2.01534593,2.82777451 Z" id="Path-6" fill="#625555"></path>
                    <path d="M102.811065,118.57482 C170.671214,108.423303 144.364428,123.85631 199.790263,97.6480954 C255.216097,71.439881 301.703603,97.648095 313.32479,97.6480949 C314.41033,97.6480949 364.018233,118.630735 358.925695,136.895777 C353.35738,156.867256 306.866772,208.734355 212.358034,198.910342 C117.849296,189.086329 34.950916,128.726337 102.811065,118.57482 Z" id="Path-13" fill="#6C5D5D" transform="translate(218.646221, 143.067893) scale(-1, 1) translate(-218.646221, -143.067893) "></path>
                </g>
            </g>
        </g>
    </g>
</svg>