<?xml version="1.0" encoding="UTF-8" standalone="no"?>
<svg width="1666px" height="1434px" viewBox="0 0 1666 1434" version="1.1" xmlns="http://www.w3.org/2000/svg" xmlns:xlink="http://www.w3.org/1999/xlink">
    <!-- Generator: Sketch 3.7 (28169) - http://www.bohemiancoding.com/sketch -->
    <title>Bertie rect</title>
    <desc>Created with Sketch.</desc>
    <defs>
        <rect id="path-1" x="0" y="19" width="2115" height="1578"></rect>
        <linearGradient x1="50%" y1="50%" x2="50%" y2="69.0545936%" id="linearGradient-3">
            <stop stop-color="#625555" offset="0%"></stop>
            <stop stop-color="#7C6661" offset="100%"></stop>
        </linearGradient>
        <path d="M18.2874787,759.107309 C52.8627886,767.588757 65.9438189,712.595224 142.994486,734.668406 C220.045153,756.741587 270.816156,814.642588 270.816156,814.642588 C270.816156,814.642588 278.247734,737.516834 282.273368,712.595224 C282.373326,711.976409 285.561957,677.048471 285.561957,677.048471 L285.561945,1611.36183 L1403.28073,1611.36183 L1391.31194,723.926767 C1391.31194,723.926767 1395.92074,759.615691 1399.02338,782.862803 C1403.28071,814.761545 1402.63763,822.562674 1403.28071,845.611338 C1457.28425,819.833078 1464.58513,797.806711 1561.53313,797.806711 C1658.48113,797.806711 1704.72148,814.642588 1704.72148,814.642588 C1704.72148,814.642588 1700.19254,368.495334 1561.53317,307.263017 C1440.38816,253.765083 1198.58517,176.058474 1198.58517,176.058474 C1198.58517,176.058474 1185.14913,134.63398 1177.34103,117.731295 C1117.36251,192.536416 927.63357,203.051965 859.207422,203.051965 C790.781275,203.051965 662.116163,202.854783 547.977442,108.59311 C536.606539,123.400047 504.274683,161.9191 504.274683,161.9191 C504.274683,161.9191 242.458681,253.567263 161.424773,289.347818 C43.1145467,341.587748 -2.76823821,572.138132 18.2874787,759.107309 Z" id="path-4"></path>
        <radialGradient cx="23.8567447%" cy="35.4817362%" fx="23.8567447%" fy="35.4817362%" r="78.268884%" id="radialGradient-6">
            <stop stop-color="#7C6661" offset="0%"></stop>
            <stop stop-color="#625555" offset="100%"></stop>
        </radialGradient>
        <linearGradient x1="115.449434%" y1="100%" x2="0%" y2="7.91814984%" id="linearGradient-7">
            <stop stop-color="#464646" offset="0%"></stop>
            <stop stop-color="#625555" offset="100%"></stop>
        </linearGradient>
        <linearGradient x1="13.0358147%" y1="120.637833%" x2="88.0679471%" y2="0%" id="linearGradient-8">
            <stop stop-color="#464646" offset="0%"></stop>
            <stop stop-color="#625555" offset="100%"></stop>
        </linearGradient>
        <radialGradient cx="50%" cy="50%" fx="50%" fy="50%" r="50%" id="radialGradient-9">
            <stop stop-color="#4A4A4A" stop-opacity="0.85" offset="0%"></stop>
            <stop stop-color="#404040" offset="100%"></stop>
        </radialGradient>
        <linearGradient x1="38.6582526%" y1="2.17495948%" x2="80.7956579%" y2="84.5441399%" id="linearGradient-10">
            <stop stop-color="#FFFBF2" offset="0%"></stop>
            <stop stop-color="#FFF5E1" offset="100%"></stop>
        </linearGradient>
        <radialGradient cx="42.6750069%" cy="71.4911779%" fx="42.6750069%" fy="71.4911779%" r="71.9685743%" id="radialGradient-11">
            <stop stop-color="#404040" offset="0%"></stop>
            <stop stop-color="#4A4A4A" offset="100%"></stop>
        </radialGradient>
        <radialGradient cx="54.8187841%" cy="68.0756113%" fx="54.8187841%" fy="68.0756113%" r="71.9685743%" id="radialGradient-12">
            <stop stop-color="#404040" offset="0%"></stop>
            <stop stop-color="#4A4A4A" offset="100%"></stop>
        </radialGradient>
        <radialGradient cx="50%" cy="50%" fx="50%" fy="50%" r="71.9685743%" id="radialGradient-13">
            <stop stop-color="#404040" offset="0%"></stop>
            <stop stop-color="#4A4A4A" offset="100%"></stop>
        </radialGradient>
    </defs>
    <g id="Page-1" stroke="none" stroke-width="1" fill="none" fill-rule="evenodd">
        <g id="Bertie-rect" transform="translate(815.500000, 635.500000) scale(-1, 1) translate(-815.500000, -635.500000) translate(-242.000000, -163.000000)">
            <mask id="mask-2" fill="white">
                <use xlink:href="#path-1"></use>
            </mask>
            <g id="Rectangle-1"></g>
            <g id="Body" mask="url(#mask-2)">
                <g transform="translate(192.000000, 1038.000000)">
                    <path d="M1161.2661,116.898132 C1165.34201,111.651346 1169.96701,101.581806 1122.95442,106.135318 C1075.94183,110.68883 1074.34718,123.911335 1074.34718,123.911335 L1138.11558,162.73015 C1138.11558,162.73015 1157.19019,122.144918 1161.2661,116.898132 Z" id="Path-22" stroke="#625555" stroke-width="4" fill="#A7BBD2" fill-rule="evenodd"></path>
                    <path d="M539.902276,118.057013 C525.377118,107.633319 557.127715,104.011583 576.860403,104.011583 C596.593091,104.011583 599.597599,105.428993 599.597599,105.428993 L554.660973,162.048018 C554.660973,162.048018 554.427434,128.480707 539.902276,118.057013 Z" id="Path-21" stroke="#625555" stroke-width="4" fill="#A7BBD2" fill-rule="evenodd"></path>
                    <path d="M533.644704,22.9092134 C533.644704,22.9092134 575.705401,48.513553 527.921397,151.225421 C523.043373,161.710748 497.246256,195.894367 497.246256,195.894367 L399.921862,243.438388 L796.015183,401.417282 L1285.30091,224.908827 C1285.30091,224.908827 1123.8808,143.5191 1113.86634,100.990904 C1103.85187,58.4627081 1139.50477,36.5099796 1139.50477,36.5099796 L533.644704,22.9092134 Z" id="Neck" stroke="#625555" stroke-width="6" fill="url(#linearGradient-3)" fill-rule="evenodd" transform="translate(842.611385, 212.163248) scale(-1, 1) rotate(-357.000000) translate(-842.611385, -212.163248) "></path>
                    <mask id="mask-5" fill="white">
                        <use xlink:href="#path-4"></use>
                    </mask>
                    <use id="Shirt" stroke="#625555" stroke-width="4" fill="#FFFFFF" fill-rule="evenodd" transform="translate(859.031378, 859.977468) rotate(-1.000000) translate(-859.031378, -859.977468) " xlink:href="#path-4"></use>
                    <circle id="Oval-10" stroke="#A7BBD2" stroke-width="60" fill="none" mask="url(#mask-5)" cx="859.5" cy="769.5" r="345.5"></circle>
                </g>
            </g>
            <g id="Face" transform="translate(1061.406196, 643.574913) rotate(-11.000000) translate(-1061.406196, -643.574913) translate(527.406196, 92.074913)">
                <path d="M834.425695,192.629491 C834.425695,192.629491 795.096774,156.313252 645.205563,118.307664 C495.314353,80.3020758 352.341515,94.0490633 352.341515,94.0490633 C352.341515,94.0490633 286.061619,25.9643611 208.024006,10.3096128 C129.986394,-5.34513557 129.914952,161.583237 105.604877,221.802293 C81.1237402,282.44509 1.10323998,395.441386 10.9970911,650.177937 C17.0504577,806.0337 95.8689495,975.817884 283.885564,1047.56832 C374.022802,1081.96627 450.607577,1095.68855 532.477392,1092.58114 C746.100165,1084.47297 912.554967,999.311177 1012.76487,646.469991 C1036.06495,564.429894 1039.31608,380.143666 1039.31608,380.143666 C1039.31608,380.143666 1082.12976,213.83666 1039.31608,175.796727 C981.076574,124.050969 834.425695,192.629491 834.425695,192.629491 Z" id="Path-1" stroke="#625555" stroke-width="8" fill="url(#radialGradient-6)" transform="translate(534.249479, 551.143679) rotate(-359.000000) translate(-534.249479, -551.143679) "></path>
                <path d="M965.377402,264.767834 C929.942691,308.54089 904.41775,364.899419 904.41775,364.899419 C904.41775,364.899419 847.945598,241.779737 876.433849,204.181958 C904.9221,166.584178 1035.91313,192.930708 1035.91313,192.930708 C1035.91313,192.930708 1000.81211,220.994778 965.377402,264.767834 Z" id="Path-19" fill="url(#linearGradient-7)" transform="translate(952.158735, 274.428509) scale(-1, 1) rotate(-350.000000) translate(-952.158735, -274.428509) "></path>
                <path d="M164.335121,97.2481266 C164.335121,97.2481266 241.369265,37.6783706 276.05245,57.9177399 C296.932837,70.1024872 297.030187,185.821187 297.030187,185.821187 C297.030187,185.821187 270.322255,155.316093 236.966411,135.529837 C203.610566,115.743581 164.335121,97.2481266 164.335121,97.2481266 Z" id="Path-20" fill="url(#linearGradient-8)" transform="translate(230.682654, 119.771920) scale(-1, 1) rotate(-7.000000) translate(-230.682654, -119.771920) "></path>
                <g id="Left-eye" transform="translate(185.000000, 254.000000)">
                    <path d="M7.87022661,61.3091433 C10.1301068,35.3337349 37.238317,3.1946497 73.8969943,9.78666005 C116.064232,17.3692267 132.627074,42.9293485 130.714665,64.9108717 C128.802256,86.8923949 111.245649,101.978193 64.3328667,111.94857 C17.4200847,121.918946 5.61034645,87.2845517 7.87022661,61.3091433 Z" id="Path-5" stroke="#625555" stroke-width="3" fill="#FFFFFF" transform="translate(69.235082, 61.309144) rotate(-8.000000) translate(-69.235082, -61.309144) "></path>
                    <path d="M68.7032932,102.946611 C92.8399555,102.946611 112.406586,84.3610467 112.406586,61.4345909 C112.406586,38.5081351 92.8399555,19.9225705 68.7032932,19.9225705 C44.5666308,19.9225705 25,38.5081351 25,61.4345909 C25,84.3610467 44.5666308,102.946611 68.7032932,102.946611 Z" id="Oval-3" stroke="#FFFFFF" fill="url(#radialGradient-9)"></path>
                    <path d="M68.7071336,56.0806992 C81.7792804,56.2030387 94.4142687,63.1481837 94.4142687,56.0807002 C94.4142687,42.1862488 82.9047926,30.9225705 68.7071343,30.9225705 C54.5094761,30.9225705 43,42.1862488 43,56.0807002 C43,62.9076681 56.079849,55.962523 68.7071336,56.0806992 Z" id="Oval-1" fill="#FFFFFF"></path>
                </g>
                <g id="Right-eye" transform="translate(601.000000, 354.000000)">
                    <path d="M10.5587599,38.8649229 C10.5587599,38.8649229 29.0087661,-5.04080236 81.6875656,10.608927 C134.366365,26.2586563 131.073256,75.4366303 120.150109,94.2667242 C109.226961,113.096818 69.1776808,131.516224 31.1627749,97.9398635 C-6.85213107,64.3635031 10.5587599,38.8649229 10.5587599,38.8649229 Z" id="Path-4" stroke="#625555" stroke-width="3" fill="#FFFFFF" transform="translate(66.662787, 61.906714) rotate(-353.000000) translate(-66.662787, -61.906714) "></path>
                    <path d="M66.1107761,103.90465 C90.2474384,103.90465 109.814069,85.319085 109.814069,62.3926292 C109.814069,39.4661734 90.2474384,20.8806088 66.1107761,20.8806088 C41.9741138,20.8806088 22.4074829,39.4661734 22.4074829,62.3926292 C22.4074829,85.319085 41.9741138,103.90465 66.1107761,103.90465 Z" id="Oval-3" stroke="#FFFFFF" fill="url(#radialGradient-9)" transform="translate(66.110776, 62.392629) rotate(-353.000000) translate(-66.110776, -62.392629) "></path>
                    <path d="M96.0871077,70.743839 C102.413085,55.0903938 93.990989,37.4600917 77.275829,31.3654571 C60.560669,25.2708226 41.8821363,33.0197696 35.5561587,48.6732148 C32.4848302,56.2731267 53.7001989,48.0195564 68.2930602,53.5930549 C83.7569364,59.4992228 92.8324585,78.7973723 96.0871077,70.743839 Z" id="Oval-2" fill="#FFFFFF" transform="translate(66.723674, 50.982435) rotate(-358.000000) translate(-66.723674, -50.982435) "></path>
                </g>
                <g id="Nose" transform="translate(137.000000, 332.000000)">
                    <path d="M67.1765581,380.251531 C62.6857086,435.71314 76.2012739,477.321134 84.7204236,504.127042 C88.7534196,516.817055 111.568052,572.698644 173.34698,585.376348 C242.06755,599.478552 333.083037,566.235646 381.414309,520.521489 C473.194786,433.710881 473.725812,392.097323 497.605265,298.877942 C521.484718,205.658561 485.503017,117.484859 416.561641,51.864681 C371.141332,8.63246151 281.331721,-1.69285194 258.040631,1.09311889 C234.749542,3.87908971 189.280511,16.7062889 135.622386,45.8077465 C81.9642617,74.9092041 50.6211505,91.853973 0.493885356,259.987629 C-3.8203342,282.935279 71.6674076,324.789922 67.1765581,380.251531 Z" id="Path-2" fill="url(#linearGradient-10)"></path>
                    <path d="M124.0774,261.50494 C146.363994,261.504946 214.719076,255.651484 264.624264,185.183694 C280.96061,162.116228 261.908845,126.847376 251.951821,110.975388 C231.49157,78.3607359 209.472126,69.6772647 189.580581,63.3892029 C169.689036,57.1011411 120.954636,35.4381094 82.8894463,63.3892033 C44.8242568,91.3402972 33.5143502,153.269044 33.5143505,177.891934 C33.5143505,189.450351 36.0831472,207.166061 43.138423,217.197329 C51.1129986,228.535667 101.790806,261.504934 124.0774,261.50494 Z" id="Path-3" fill="#4A4A4A" transform="translate(152.257175, 155.476266) rotate(-14.000000) translate(-152.257175, -155.476266) "></path>
                    <path d="M78.9023146,100.376992 C78.9023146,100.376992 115.241737,81.0285135 115.241737,100.376993 C115.241737,119.725472 100.028747,120.756845 102.385051,142.154775 C104.741355,163.552705 65.8047958,162.189369 58.3317265,145.544189 C50.8586572,128.899009 78.9023146,100.376992 78.9023146,100.376992 Z" id="Path-14" fill="url(#radialGradient-11)" transform="translate(86.153577, 124.951725) rotate(-14.000000) translate(-86.153577, -124.951725) "></path>
                    <path d="M176.148274,106.480301 C182.511697,109.931538 204.024497,148.158088 196.305343,159.560301 C188.58619,170.962513 179.79903,181.277344 160.076044,181.277345 C140.353058,181.277346 135.889787,162.516995 135.889787,155.164966 C135.889787,147.812938 151.578019,141.87884 151.578019,129.691638 C151.578019,117.504436 134.694122,112.812148 151.578019,105.188274 C168.461917,97.5644007 169.78485,103.029064 176.148274,106.480301 Z" id="Path-15" fill="url(#radialGradient-12)" transform="translate(166.922734, 141.306809) rotate(-14.000000) translate(-166.922734, -141.306809) "></path>
                    <path d="M104.140592,175.534639 C124.733528,185.525757 143.344486,188.666101 132.727262,203.404156 C122.110038,218.14221 109.55986,233.692662 94.8372136,223.32476 C80.1145676,212.956858 70.7453562,202.730424 74.6182625,189.132532 C78.4911687,175.534639 83.5476566,165.543522 104.140592,175.534639 Z" id="Path-16" fill="url(#radialGradient-13)" transform="translate(104.775244, 199.086723) rotate(-14.000000) translate(-104.775244, -199.086723) "></path>
                </g>
                <g id="Mouth" transform="translate(141.000000, 588.000000)">
                    <path d="M2.01534593,2.82777451 C28.4212732,-15.7806711 266.512724,103.412487 344.375395,83.0584552 C422.238066,62.7044238 394.937437,122.082187 372.749144,140.600673 C231.064596,258.851467 70.7132484,192.249067 70.7132472,122.082188 C70.713246,51.9153078 -11.4299514,21.673306 2.01534593,2.82777451 Z" id="Path-6" fill="#625555"></path>
                    <path d="M102.811065,118.57482 C170.671214,108.423303 144.364428,123.85631 199.790263,97.6480954 C255.216097,71.439881 301.703603,97.648095 313.32479,97.6480949 C314.41033,97.6480949 364.018233,118.630735 358.925695,136.895777 C353.35738,156.867256 306.866772,208.734355 212.358034,198.910342 C117.849296,189.086329 34.950916,128.726337 102.811065,118.57482 Z" id="Path-13" fill="#6C5D5D" transform="translate(218.646221, 143.067893) scale(-1, 1) translate(-218.646221, -143.067893) "></path>
                </g>
            </g>
        </g>
    </g>
</svg>