<?xml version="1.0" encoding="UTF-8" standalone="no"?>
<svg width="1344px" height="1368px" viewBox="0 0 1344 1368" version="1.1" xmlns="http://www.w3.org/2000/svg" xmlns:xlink="http://www.w3.org/1999/xlink">
    <!-- Generator: Sketch 3.7 (28169) - http://www.bohemiancoding.com/sketch -->
    <title>Apple</title>
    <desc>Created with Sketch.</desc>
    <defs></defs>
    <g id="Page-1" stroke="none" stroke-width="1" fill="none" fill-rule="evenodd">
        <g id="Apple">
            <path d="M4.54437513,542.769544 C4.54437513,542.769544 51.0045913,222 349.199544,222 C647.394496,222 696.728023,372.840805 696.728023,372.840805 C696.728023,372.840805 718.312096,226.955138 1001.08315,264.638949 C1283.85419,302.322761 1344,426.358795 1344,691.360382 C1344,956.361969 1208.35083,1165.40143 1053.17446,1282.62541 C897.998093,1399.84939 654.431985,1306.64936 654.431985,1306.64936 C654.431985,1306.64936 370.683869,1427.71211 164.235441,1198.58313 C-42.2129868,969.454145 4.54437513,542.769544 4.54437513,542.769544 Z" id="Path-43" fill="#C0DC99"></path>
            <path d="M595.654907,222.095306 C645.089443,321.643581 666.514007,458.921003 709.536363,442.907318 C756.933115,425.265405 734.380064,296.265582 680.509491,184.506042 C632.418703,84.737207 554.622821,0 554.622821,0 L462,42.3403244 C462,42.3403244 542.010753,114.069958 595.654907,222.095306 Z" id="Path-44" fill="#6C5D5D"></path>
            <path d="M631.184044,1301.33069 C631.184044,1301.33069 596.000002,1358.42525 596,1358.42525 C595.999998,1358.42525 638.859821,1326.45169 638.859821,1326.45169 L628.378801,1364.9349 C628.378801,1364.9349 653.227477,1328.98997 653.227476,1328.98997 C653.227475,1328.98997 672.627495,1368 672.627495,1368 L678.809271,1324.15655 L711.519633,1363.74128 L697.148293,1314.74021 C697.148293,1314.74021 735.749398,1354.28442 735.749394,1354.28442 C735.74939,1354.28441 697.148293,1301.33069 697.148293,1301.33069 C697.148293,1301.33069 679.280823,1308.0353 656.266788,1304.02709 C633.252753,1300.01889 631.184044,1301.33069 631.184044,1301.33069 Z" id="Path-45" fill="#6E5D5D"></path>
        </g>
    </g>
</svg>