<?xml version="1.0" encoding="UTF-8" standalone="no"?>
<svg width="1377px" height="1805px" viewBox="0 0 1377 1805" version="1.1" xmlns="http://www.w3.org/2000/svg" xmlns:xlink="http://www.w3.org/1999/xlink">
    <!-- Generator: Sketch 3.7 (28169) - http://www.bohemiancoding.com/sketch -->
    <title>Therapy</title>
    <desc>Created with Sketch.</desc>
    <defs></defs>
    <g id="Page-1" stroke="none" stroke-width="1" fill="none" fill-rule="evenodd">
        <g id="Therapy" transform="translate(774.500000, 844.500000) rotate(-324.000000) translate(-774.500000, -844.500000) translate(546.000000, -193.000000)">
            <path d="M435.325322,2074.26923 C390.385069,1956.46719 271.422519,1956.46719 271.422519,1956.46719 L271.422519,1562 L186.95635,1562 L186.95635,1956.46719 C186.95635,1956.46719 73.0135164,1956.46719 25,2074.26923 C29.0078358,2074.26923 302.55805,2074.26923 435.325322,2074.26923 Z" id="Path-48" fill="#D8D8D8"></path>
            <rect id="Rectangle-5" fill="#DAEFFF" x="103.95" y="407" width="249.107143" height="1109.98317"></rect>
            <rect id="Rectangle-4" fill="#4A4A4A" x="0" y="1517" width="456.269571" height="44.7307692"></rect>
            <path d="M103.95,602.293269 L263.378571,602.293269" id="Path-49" stroke="#404040" stroke-width="7"></path>
            <path d="M103.95,685.990385 L263.378571,685.990385" id="Path-49-Copy" stroke="#404040" stroke-width="7"></path>
            <path d="M103.95,769.6875 L263.378571,769.6875" id="Path-49-Copy-2" stroke="#404040" stroke-width="7"></path>
            <path d="M103.95,853.384615 L263.378571,853.384615" id="Path-49-Copy-3" stroke="#404040" stroke-width="7"></path>
            <path d="M103.95,937.081731 L263.378571,937.081731" id="Path-49-Copy-4" stroke="#404040" stroke-width="7"></path>
            <path d="M103.95,1020.77885 L263.378571,1020.77885" id="Path-49-Copy-5" stroke="#404040" stroke-width="7"></path>
            <path d="M103.95,1104.47596 L263.378571,1104.47596" id="Path-49-Copy-6" stroke="#404040" stroke-width="7"></path>
            <polygon id="Path-56" fill="#D8D8D8" points="219 407.155426 240.678776 407.155426 240.678776 64.9303064 219 0.838926892"></polygon>
        </g>
    </g>
</svg>