<svg width="25" height="17" viewBox="0 0 25 17" xmlns="http://www.w3.org/2000/svg">
  <path d="M1.6 2.22c.64.32 9.653 5.173 9.973 5.333.374.214.8.267 1.227.267.427 0 .907-.053 1.227-.267.32-.16 9.333-5.013 9.973-5.333.693-.373 1.28-1.44.107-1.44H1.547C.32.78.96 1.847 1.6 2.22zm22.667 2.667c-.694.373-9.814 5.12-10.24 5.333-.48.267-.8.267-1.227.267-.427 0-.747 0-1.227-.267-.426-.213-9.493-4.96-10.24-5.333C.8 4.62.8 4.94.8 5.153v9.814c0 .533.747 1.28 1.333 1.28h21.334c.586 0 1.333-.747 1.333-1.28V5.153c0-.213 0-.533-.533-.266z" fill-rule="evenodd"/>
</svg>
