<?xml version="1.0" encoding="UTF-8" standalone="no"?>
<svg width="1000px" height="1090px" viewBox="0 0 1000 1090" version="1.1" xmlns="http://www.w3.org/2000/svg" xmlns:xlink="http://www.w3.org/1999/xlink">
    <!-- Generator: Sketch 40.1 (33804) - http://www.bohemiancoding.com/sketch -->
    <title>Slice</title>
    <desc>Created with Sketch.</desc>
    <defs></defs>
    <g id="Page-1" stroke="none" stroke-width="1" fill="none" fill-rule="evenodd">
        <g id="Background">
            <path d="M0,270.086362 C0,270.086362 43.9083728,232.599952 165.998894,276.939753 C288.089416,321.279554 325.312184,274.544488 382.176032,289.93777 C439.039881,305.331053 437.773344,315.529946 520.713531,303.08627 C525.935827,302.302759 608.702422,280.945511 652.902136,229.284807 C700.071874,174.152734 692.594766,218.314215 744.920393,229.284807 C797.24602,240.2554 800.446989,312.534075 848.399107,289.93777 C896.351225,267.341466 893.948285,237.068889 934.413019,246.659435 C974.877753,256.249981 1000,262.13456 1000,262.13456 L1000,1088.84826 L0,1088.84826 L0,270.086362 Z" id="Path-7" fill="#FFF8E9"></path>
            <path d="M-1.8189894e-12,441.567088 C-1.8189894e-12,441.567088 44.012265,388.776608 97.8158464,388.776608 C153.651451,388.776608 193.037519,398.773379 237.910924,418.749878 C301.847775,447.212938 326.74466,398.579941 360.309189,388.776608 C417.430631,372.092909 428.006296,416.256038 510.946222,403.812402 C593.886149,391.368765 610.810583,447.521426 657.980173,392.389527 C705.149762,337.257627 698.140793,381.418969 750.466255,392.389527 C802.791718,403.360085 799.489127,441.346112 847.441094,418.749878 C895.393062,396.153645 899.334583,392.389527 931.079627,403.812402 C962.824671,415.235277 999.996858,388.776608 999.996858,388.776608 L999.996858,1089.65099 L-1.8189894e-12,1089.65099 L-1.8189894e-12,441.567088 Z" id="Path-7" fill="#ACA7D2"></path>
            <path d="M0,561.567088 C0,561.567088 17.1569868,538.861709 139.247125,583.201371 C261.337263,627.541033 252.267759,550.559013 309.389201,533.875314 C366.510643,517.191614 404.098732,569.806395 446.744631,569.806395 C492.356416,569.806395 498.060089,540.496339 533.918433,533.875314 C569.776777,527.254288 587.549491,519.059285 623.632089,500.401207 C729.023361,445.904063 752.252999,497.164396 803.423149,527.254288 C854.593299,557.344181 890.724155,557.368117 916.108032,533.875314 C941.491909,510.38251 999.996858,508.776608 999.996858,508.776608 L999.996858,1089.76907 L0,1089.76907 L0,561.567088 Z" id="Path-7" fill="#9BD5FF"></path>
        </g>
    </g>
</svg>